Coordinates
version=1
nRows=9
nColumns=42
inDegrees=yes

Units are S.I. units (second, meters, Newtons, ...)
If the header above contains a line with 'inDegrees', this indicates whether rotational values are in degrees (yes) or radians (no).

endheader
time	pelvis_tilt	pelvis_list	pelvis_rotation	pelvis_tx	pelvis_ty	pelvis_tz	hip_flexion_r	hip_adduction_r	hip_rotation_r	knee_angle_r	knee_adduction_r	knee_angle_r_beta	ankle_angle_r	subtalar_angle_r	mtp_angle_r	hip_flexion_l	hip_adduction_l	hip_rotation_l	knee_angle_l	knee_adduction_l	knee_angle_l_beta	ankle_angle_l	subtalar_angle_l	mtp_angle_l	lumbar_extension	lumbar_bending	lumbar_rotation	arm_flex_r	arm_add_r	arm_rot_r	elbow_flex_r	pro_sup_r	wrist_flex_r	wrist_dev_r	arm_flex_l	arm_add_l	arm_rot_l	elbow_flex_l	pro_sup_l	wrist_flex_l	wrist_dev_l
      0.40000000	     14.50922446	     -2.75247976	      1.59939282	     -2.13571312	      0.90591417	      0.07189285	    -27.98215735	     -0.84737221	    -18.24321518	      9.14299350	     13.65750240	      0.15957534	     15.15386654	     33.66374649	     -9.47204117	     16.45608488	     -3.05451718	    -11.11818832	     18.21404896	     -4.52567024	      0.31789512	     11.57656695	      7.96731781	     -9.47204117	    -31.90454657	      1.93493141	      0.92629463	     22.90895804	    -25.50691103	     11.64134652	     62.95374981	     90.00000001	      0.00000000	      0.00000000	     -5.31008241	     -9.52309112	      7.27215395	     35.94794767	     90.00000001	      0.00000000	      0.00000000
      0.41000000	     14.43903087	     -2.89613046	      1.64793509	     -2.12718228	      0.90477351	      0.07073724	    -28.38906805	     -0.86251407	    -17.96771878	      9.41577808	     13.67608454	      0.16433633	     15.15796604	     33.69424869	     -9.46320989	     16.50438450	     -3.02523560	    -11.24444709	     18.31483426	     -4.63088430	      0.31965416	     11.66835535	      7.88717879	     -9.46320989	    -31.80910397	      2.10621848	      0.86634583	     23.22432905	    -25.58791779	     11.56989087	     63.12028187	     90.00000001	      0.00000000	      0.00000000	     -5.52195155	     -9.54776684	      7.32656372	     35.77130888	     90.00000001	      0.00000000	      0.00000000
      0.42000000	     14.40308901	     -2.97167358	      1.58924917	     -2.11854886	      0.90376530	      0.06959530	    -28.78149529	     -1.00498872	    -17.64044613	      9.79220818	     13.62559777	      0.17090627	     15.20329106	     33.72960863	     -9.45047411	     16.48979860	     -2.93486168	    -11.33026210	     18.86670318	     -4.73217201	      0.32928609	     11.91943037	      7.66100725	     -9.45047411	    -31.76667369	      2.16328353	      0.86645700	     23.45600403	    -25.67809597	     11.53154694	     63.25488124	     90.00000001	      0.00000000	      0.00000000	     -5.74877646	     -9.53586797	      7.55502778	     35.31281917	     90.00000001	      0.00000000	      0.00000000
      0.43000000	     14.21246496	     -3.08037032	      1.48470496	     -2.10974886	      0.90247310	      0.06857095	    -28.95173584	     -1.13870831	    -17.50516110	     10.35913960	     13.55702181	      0.18080109	     15.44335741	     33.84317039	     -9.41778631	     16.77414638	     -2.96275018	    -11.67386964	     20.13859169	     -4.78073871	      0.35148473	     12.59775429	      6.91616877	     -9.41778631	    -31.51677231	      2.21826121	      1.02285870	     23.49273489	    -25.79953403	     11.45627943	     63.35493174	     90.00000001	      0.00000000	      0.00000000	     -5.80116886	     -9.52953047	      8.35429783	     34.35081870	     90.00000001	      0.00000000	      0.00000000
      0.44000000	     14.08989726	     -3.16462344	      1.38628225	     -2.10092207	      0.90141927	      0.06742932	    -29.18983878	     -1.29630861	    -17.29432941	     10.90293633	     13.46357333	      0.19029214	     15.52386231	     33.99107087	     -9.39667440	     16.77879330	     -2.90239095	    -11.58888171	     21.26756091	     -4.76643721	      0.37118896	     13.02103078	      6.36458607	     -9.39667440	    -31.37747947	      2.24719224	      1.08958933	     23.52904414	    -25.80465293	     11.27551385	     63.38701141	     90.00000001	      0.00000000	      0.00000000	     -5.93484612	     -9.55757280	      8.87643181	     33.74201481	     90.00000001	      0.00000000	      0.00000000
      0.45000000	     13.86331301	     -3.29460847	      1.28314452	     -2.09191914	      0.90017429	      0.06637276	    -29.27142207	     -1.35865840	    -17.37625323	     11.59914449	     13.17578156	      0.20244326	     15.74590590	     34.41033122	     -9.36334244	     16.94146181	     -2.92448814	    -11.54008741	     22.77972236	     -4.69816940	      0.39758116	     13.63826334	      5.19012409	     -9.36334244	    -31.09705566	      2.31413382	      1.27954518	     23.36705630	    -25.84243895	     10.92862556	     63.43078881	     90.00000001	      0.00000000	      0.00000000	     -5.92606692	     -9.68727902	      9.59566978	     33.22085074	     90.00000001	      0.00000000	      0.00000000
      0.46000000	     13.66856200	     -3.32443986	      1.20657184	     -2.08287672	      0.89915333	      0.06511831	    -29.34452592	     -1.51905235	    -17.68866075	     12.42729092	     12.81164863	      0.21689714	     15.91419936	     35.26418867	     -9.26500061	     16.81537076	     -2.76845064	    -10.95501130	     23.93631834	     -4.42222113	      0.41776757	     13.84704494	      3.51556418	     -9.26500061	    -30.87092507	      2.29703911	      1.40249738	     23.12990855	    -25.82607187	     10.55138151	     63.42468937	     90.00000001	      0.00000000	      0.00000000	     -5.86270318	     -9.90906141	     10.02742124	     33.22232529	     90.00000001	      0.00000000	      0.00000000
      0.47000000	     13.45442153	     -3.29922281	      0.96914250	     -2.07365257	      0.89818673	      0.06402002	    -29.44096558	     -1.87442466	    -17.48149018	     13.10726226	     12.73945423	      0.22876488	     15.89046606	     35.28151115	     -9.24694947	     16.66100786	     -2.63283267	    -10.95878411	     25.09505300	     -4.27388304	      0.43799130	     14.30755442	      2.70008302	     -9.24694947	    -30.61514407	      2.15782270	      1.59253458	     22.88467162	    -25.75855502	     10.25448078	     63.28910355	     90.00000001	      0.00000000	      0.00000000	     -5.71042805	    -10.05050833	      9.70899691	     33.39315631	     90.00000001	      0.00000000	      0.00000000
      0.48000000	     13.23792023	     -3.28549716	      0.78219570	     -2.06437608	      0.89733171	      0.06284566	    -29.50878633	     -2.12269712	    -17.32140557	     13.78947202	     12.49572490	      0.24067169	     15.90804161	     35.32708123	     -9.23034191	     16.48534862	     -2.51254280	    -11.00349973	     26.17697338	     -4.14665306	      0.45687437	     14.64571097	      1.84832945	     -9.23034191	    -30.37100130	      2.04554521	      1.78347637	     22.53386338	    -25.70266813	      9.88969497	     63.13589895	     90.00000001	      0.00000000	      0.00000000	     -5.46173044	    -10.20974444	      9.13684523	     33.75654287	     90.00000001	      0.00000000	      0.00000000
